# xmcd
#
# Track frame offsets:
#	150
#	14706
#	32569
#	47631
#	63061
#	80708
#	98414
#	117192
#	134187
#	149524
#	168624
#	185269
#	196948
#	213025
#	239462
#
# Disc length: 3454 seconds
#
# Revision: 1
# Processed by: cddbd v1.5.2PL0 Copyright (c) Steve Scherf et al.
# Submitted via: audiograbber 1.83.01
#
DISCID=d20d7c0f
DTITLE=Eden Brent - Mississippi Number One
DYEAR=2008
DGENRE=Blues
TTITLE0=Mississippi Flatland Blues
TTITLE1=He'll Do The Same Thing To You
TTITLE2=Darkness On The Delta
TTITLE3=Love Me Til Dawn
TTITLE4=Fried Chicken
TTITLE5=Mississippi Number One
TTITLE6=The Man I Love
TTITLE7=Careless Love
TTITLE8=Meet You Anywhere
TTITLE9=Why Don't You Do Right
TTITLE10=Afraid To Let Go
TTITLE11=Close The Door
TTITLE12=All Over Me
TTITLE13=Trouble In Mind
TTITLE14=Until I Die
EXTD=
EXTT0=
EXTT1=
EXTT2=
EXTT3=
EXTT4=
EXTT5=
EXTT6=
EXTT7=
EXTT8=
EXTT9=
EXTT10=
EXTT11=
EXTT12=
EXTT13=
EXTT14=
PLAYORDER=
